<mxfile host="Electron" modified="2024-06-06T11:16:24.362Z" agent="Mozilla/5.0 (Windows NT 10.0; Win64; x64) AppleWebKit/537.36 (KHTML, like Gecko) draw.io/21.3.7 Chrome/112.0.5615.204 Electron/24.5.0 Safari/537.36" etag="ggYG0U8jATH4EH1Us7m6" version="21.3.7" type="device">
  <diagram id="kJes-hOu5LFb9hqr-LKq" name="Seite-1">
    <mxGraphModel dx="675" dy="462" grid="0" gridSize="10" guides="1" tooltips="1" connect="1" arrows="1" fold="1" page="1" pageScale="1" pageWidth="827" pageHeight="1169" math="0" shadow="0">
      <root>
        <mxCell id="0" />
        <mxCell id="1" parent="0" />
        <mxCell id="wZrfAmfpHfwwoAlyTFxW-4" value="" style="endArrow=classic;html=1;rounded=0;fontSize=16;entryX=0;entryY=0.5;entryDx=0;entryDy=0;strokeWidth=2;" parent="1" target="wZrfAmfpHfwwoAlyTFxW-1" edge="1">
          <mxGeometry width="50" height="50" relative="1" as="geometry">
            <mxPoint x="150" y="210" as="sourcePoint" />
            <mxPoint x="260" y="200" as="targetPoint" />
          </mxGeometry>
        </mxCell>
        <mxCell id="wZrfAmfpHfwwoAlyTFxW-5" value="chemical fuel" style="text;html=1;align=center;verticalAlign=middle;resizable=0;points=[];autosize=1;strokeColor=none;fillColor=none;fontSize=16;" parent="1" vertex="1">
          <mxGeometry x="175" y="212" width="120" height="30" as="geometry" />
        </mxCell>
        <mxCell id="wZrfAmfpHfwwoAlyTFxW-6" value="&lt;font style=&quot;font-size: 16px;&quot;&gt;E&lt;sub&gt;fuel&lt;/sub&gt;&lt;/font&gt;" style="text;html=1;align=center;verticalAlign=middle;resizable=0;points=[];autosize=1;strokeColor=none;fillColor=none;fontSize=16;" parent="1" vertex="1">
          <mxGeometry x="202" y="172" width="60" height="40" as="geometry" />
        </mxCell>
        <mxCell id="wZrfAmfpHfwwoAlyTFxW-8" value="" style="endArrow=classic;html=1;rounded=0;fontSize=16;strokeWidth=2;exitX=1;exitY=0.5;exitDx=0;exitDy=0;" parent="1" source="wZrfAmfpHfwwoAlyTFxW-1" edge="1">
          <mxGeometry width="50" height="50" relative="1" as="geometry">
            <mxPoint x="559" y="211" as="sourcePoint" />
            <mxPoint x="659" y="211" as="targetPoint" />
          </mxGeometry>
        </mxCell>
        <mxCell id="wZrfAmfpHfwwoAlyTFxW-10" value="" style="endArrow=classic;html=1;rounded=0;fontSize=16;strokeWidth=2;dashed=1;" parent="1" edge="1">
          <mxGeometry width="50" height="50" relative="1" as="geometry">
            <mxPoint x="431" y="260" as="sourcePoint" />
            <mxPoint x="431" y="320" as="targetPoint" />
          </mxGeometry>
        </mxCell>
        <mxCell id="wZrfAmfpHfwwoAlyTFxW-13" value="Q&lt;sub&gt;loss&lt;/sub&gt;" style="text;html=1;align=center;verticalAlign=middle;resizable=0;points=[];autosize=1;strokeColor=none;fillColor=none;fontSize=16;" parent="1" vertex="1">
          <mxGeometry x="407" y="319" width="54" height="35" as="geometry" />
        </mxCell>
        <mxCell id="wZrfAmfpHfwwoAlyTFxW-14" value="&lt;font style=&quot;font-size: 30px;&quot; face=&quot;Georgia&quot;&gt;.&lt;/font&gt;" style="text;html=1;align=center;verticalAlign=middle;resizable=0;points=[];autosize=1;strokeColor=none;fillColor=none;fontSize=70;strokeWidth=2;labelBackgroundColor=none;" parent="1" vertex="1">
          <mxGeometry x="407" y="251" width="30" height="100" as="geometry" />
        </mxCell>
        <mxCell id="wZrfAmfpHfwwoAlyTFxW-1" value="&lt;font style=&quot;font-size: 16px;&quot;&gt;Fuel Boiler (FB)&lt;/font&gt;" style="rounded=0;whiteSpace=wrap;html=1;" parent="1" vertex="1">
          <mxGeometry x="320" y="160" width="210" height="100" as="geometry" />
        </mxCell>
        <mxCell id="wZrfAmfpHfwwoAlyTFxW-24" value="" style="endArrow=classic;html=1;rounded=0;fontSize=19;entryX=-0.009;entryY=0.171;entryDx=0;entryDy=0;entryPerimeter=0;fillColor=#dae8fc;strokeColor=#0A34BF;strokeWidth=2;" parent="1" edge="1">
          <mxGeometry width="50" height="50" relative="1" as="geometry">
            <mxPoint x="672.03" y="176.5" as="sourcePoint" />
            <mxPoint x="530" y="176.5" as="targetPoint" />
          </mxGeometry>
        </mxCell>
        <mxCell id="wZrfAmfpHfwwoAlyTFxW-25" value="&lt;font style=&quot;font-size: 16px;&quot;&gt;T&lt;sub style=&quot;&quot;&gt;in&lt;/sub&gt;&lt;/font&gt;" style="edgeLabel;html=1;align=center;verticalAlign=middle;resizable=0;points=[];fontSize=16;" parent="wZrfAmfpHfwwoAlyTFxW-24" vertex="1" connectable="0">
          <mxGeometry x="-0.4466" y="-1" relative="1" as="geometry">
            <mxPoint x="-33" y="-17" as="offset" />
          </mxGeometry>
        </mxCell>
        <mxCell id="wZrfAmfpHfwwoAlyTFxW-29" value="" style="endArrow=classic;html=1;rounded=0;fontSize=19;strokeColor=#FF170F;strokeWidth=2;" parent="1" edge="1">
          <mxGeometry width="50" height="50" relative="1" as="geometry">
            <mxPoint x="529" y="248" as="sourcePoint" />
            <mxPoint x="668" y="248" as="targetPoint" />
          </mxGeometry>
        </mxCell>
        <mxCell id="wZrfAmfpHfwwoAlyTFxW-30" value="&lt;font style=&quot;font-size: 16px;&quot;&gt;T&lt;sub style=&quot;&quot;&gt;out&lt;/sub&gt;&lt;/font&gt;" style="edgeLabel;html=1;align=center;verticalAlign=middle;resizable=0;points=[];fontSize=16;" parent="wZrfAmfpHfwwoAlyTFxW-29" vertex="1" connectable="0">
          <mxGeometry x="-0.4466" y="-1" relative="1" as="geometry">
            <mxPoint x="31" y="12" as="offset" />
          </mxGeometry>
        </mxCell>
        <mxCell id="Yo5HkWc7zvnG_KWLCb6x-1" value="&lt;font style=&quot;font-size: 30px;&quot; face=&quot;Georgia&quot;&gt;.&lt;/font&gt;" style="text;html=1;align=center;verticalAlign=middle;resizable=0;points=[];autosize=1;strokeColor=none;fillColor=none;fontSize=70;strokeWidth=2;" parent="1" vertex="1">
          <mxGeometry x="207" y="106" width="30" height="100" as="geometry" />
        </mxCell>
        <mxCell id="Yo5HkWc7zvnG_KWLCb6x-2" value="&lt;font style=&quot;font-size: 30px;&quot; face=&quot;Georgia&quot;&gt;.&lt;/font&gt;" style="text;html=1;align=center;verticalAlign=middle;resizable=0;points=[];autosize=1;strokeColor=none;fillColor=none;fontSize=70;strokeWidth=2;" parent="1" vertex="1">
          <mxGeometry x="657" y="127" width="30" height="100" as="geometry" />
        </mxCell>
        <mxCell id="G6MsIExth3SQJd9idaNZ-1" value="Q&lt;sub&gt;heat&lt;/sub&gt;" style="text;html=1;align=center;verticalAlign=middle;resizable=0;points=[];autosize=1;strokeColor=none;fillColor=none;fontSize=16;" vertex="1" parent="1">
          <mxGeometry x="657" y="195" width="56" height="35" as="geometry" />
        </mxCell>
      </root>
    </mxGraphModel>
  </diagram>
</mxfile>
